<svg xmlns="http://www.w3.org/2000/svg" width="61.992" height="61.992" viewBox="0 0 61.992 61.992">
  <g id="Group_418" data-name="Group 418" transform="translate(-38.82)">
    <path id="Path_96" data-name="Path 96" d="M31,194.3a31,31,0,1,0-31-31A31.031,31.031,0,0,0,31,194.3Zm0-57.828A26.832,26.832,0,1,1,4.164,163.307,26.863,26.863,0,0,1,31,136.475Z" transform="translate(38.82 -132.311)" fill="#ffff08"/>
    <path id="Path_97" data-name="Path 97" d="M123.6,195.489a2.082,2.082,0,1,0,0-4.164,15.284,15.284,0,0,1-15.267-15.267,2.082,2.082,0,1,0-4.164,0A19.452,19.452,0,0,0,123.6,195.489Z" transform="matrix(0.996, -0.087, 0.087, 0.996, -69.444, -134.344)" fill="#ffff08"/>
  </g>
</svg>
