<svg xmlns="http://www.w3.org/2000/svg" width="36.004" height="36.004" viewBox="0 0 36.004 36.004">
  <g id="Group_419" data-name="Group 419" transform="translate(0 -43.33)">
    <path id="Path_98" data-name="Path 98" d="M251.48,105.839a18,18,0,1,0-18-18A18.023,18.023,0,0,0,251.48,105.839Zm0-31.841a13.838,13.838,0,1,1-13.839,13.838A13.854,13.854,0,0,1,251.48,74Z" transform="translate(-233.478 -26.505)" fill="#ffff08"/>
    <path id="Path_99" data-name="Path 99" d="M262.181,127.676a7.479,7.479,0,0,1,7.47,7.47,2.082,2.082,0,0,0,4.164,0,11.647,11.647,0,0,0-11.634-11.634,2.082,2.082,0,0,0,0,4.164Z" transform="translate(-245.2 -72.794)" fill="#ffff08"/>
  </g>
</svg>
