<svg xmlns="http://www.w3.org/2000/svg" width="13.493" height="14.457" viewBox="0 0 13.493 14.457">
  <g id="cleaning_2_" data-name="cleaning (2)" transform="translate(-16)">
    <g id="Group_28" data-name="Group 28" transform="translate(16)">
      <g id="Group_27" data-name="Group 27" transform="translate(0)">
        <path id="Path_78" data-name="Path 78" d="M28.047,10.12H27.67a1.711,1.711,0,0,0-.762.18,1.229,1.229,0,0,1-1.094,0,1.7,1.7,0,0,0-.434-.145l.47-3.65h.511a.241.241,0,0,0,.241-.241V5.3a.241.241,0,0,0-.241-.241H25.4V4.337a.241.241,0,0,0-.071-.17L24.192,3.033V2.284l.365-.292.624,1.248.431-.215-.67-1.34.3-.239h.879a.241.241,0,0,0,.241-.241V.241A.241.241,0,0,0,26.12,0H23.71a2.171,2.171,0,0,0-2.169,2.169.241.241,0,0,0,.241.241h.482v.623l-.652.652a.241.241,0,0,0-.071.17v1.2H21.06V3.132a.238.238,0,0,0-.018-.087.249.249,0,0,0-.015-.027.269.269,0,0,0-.02-.036L20.1,1.843V.241A.241.241,0,0,0,19.855,0H18.409a.241.241,0,0,0-.241.241v1.6l-.911,1.138a.268.268,0,0,0-.02.036.249.249,0,0,0-.015.027.238.238,0,0,0-.018.087V5.06h-.964A.241.241,0,0,0,16,5.3v.964a.241.241,0,0,0,.241.241h.511l.937,7.259a.241.241,0,0,0,.239.21H23.6a1.442,1.442,0,0,0,1.075.482h.377a1.711,1.711,0,0,0,.762-.18,1.229,1.229,0,0,1,1.094,0,1.711,1.711,0,0,0,.762.18h.377a1.447,1.447,0,0,0,1.446-1.446V11.565A1.447,1.447,0,0,0,28.047,10.12ZM25.4.482h.482V.964H25.4Zm.723,5.06v.482H22.746V5.542ZM22.041,1.928A1.689,1.689,0,0,1,23.71.482h1.2v.607l-1.048.838Zm1.67.482v.482h-.964V2.409ZM22.024,3.955l.582-.582h1.246l1.064,1.064V5.06H22.024Zm-.241,1.587h.482V7.228a.241.241,0,0,0,.133.217l1.446.723a.291.291,0,0,1,.148.171.31.31,0,0,1-.024.241.281.281,0,0,1-.377.126h0l-.978-.489a.241.241,0,0,0-.347.216v2.409a.482.482,0,0,1-.482.482V9.156H21.3v2.169h-.482V9.156h-.482v2.169h-.482V9.156h-.482v2.169a.482.482,0,0,1-.482-.482v-5.3ZM18.65.482h.964v1.2H18.65Zm-.125,1.687h1.214l.578.723H17.947Zm-.838,1.2h2.891V5.06H17.687Zm-1.2,2.65V5.542h1.928v.482Zm6.746,5.542v1.446a1.44,1.44,0,0,0,.084.482H18.139l-.9-6.987h1.172v4.337a.964.964,0,0,0,.964.964h2.409a.964.964,0,0,0,.964-.964V8.823l.629.315A.768.768,0,0,0,24.4,8.789l0,0a.78.78,0,0,0,.044-.6.771.771,0,0,0-.39-.452l-1.314-.657V6.506h2.617L24.9,10.12h-.223A1.447,1.447,0,0,0,23.228,11.565Zm5.783,1.446a.964.964,0,0,1-.964.964H27.67a1.229,1.229,0,0,1-.547-.129,1.714,1.714,0,0,0-1.525,0,1.229,1.229,0,0,1-.547.129h-.377a.964.964,0,0,1-.964-.964V12.64a1.438,1.438,0,0,0,.964.371h.377a1.711,1.711,0,0,0,.762-.18,1.229,1.229,0,0,1,1.094,0,1.711,1.711,0,0,0,.762.18h.377a1.438,1.438,0,0,0,.964-.371Zm-.964-.482H27.67a1.229,1.229,0,0,1-.547-.129,1.714,1.714,0,0,0-1.525,0,1.229,1.229,0,0,1-.547.129h-.377a.964.964,0,0,1,0-1.928h.377a1.229,1.229,0,0,1,.547.129,1.715,1.715,0,0,0,1.525,0,1.229,1.229,0,0,1,.547-.129h.377a.964.964,0,1,1,0,1.928Z" transform="translate(-16)" fill="#1a1a1a"/>
      </g>
    </g>
    <g id="Group_30" data-name="Group 30" transform="translate(28.031 10.99)">
      <g id="Group_29" data-name="Group 29" transform="translate(0 0)">
        <rect id="Rectangle_14" data-name="Rectangle 14" height="0.802" fill="#1a1a1a"/>
      </g>
    </g>
    <g id="Group_32" data-name="Group 32" transform="translate(24.823 10.99)">
      <g id="Group_31" data-name="Group 31" transform="translate(0 0)">
        <rect id="Rectangle_15" data-name="Rectangle 15" width="0.802" height="0.802" fill="#1a1a1a"/>
      </g>
    </g>
    <g id="Group_34" data-name="Group 34" transform="translate(24.823 10.99)">
      <g id="Group_33" data-name="Group 33" transform="translate(0 0)">
        <rect id="Rectangle_16" data-name="Rectangle 16" height="0.802" transform="translate(0)" fill="#1a1a1a"/>
      </g>
    </g>
    <g id="Group_36" data-name="Group 36" transform="translate(26.427 10.99)">
      <g id="Group_35" data-name="Group 35" transform="translate(0 0)">
        <rect id="Rectangle_17" data-name="Rectangle 17" width="0.802" height="0.802" fill="#1a1a1a"/>
      </g>
    </g>
  </g>
</svg>
