<svg xmlns="http://www.w3.org/2000/svg" width="18.226" height="18.226" viewBox="0 0 18.226 18.226">
  <g id="tools_1_" data-name="tools (1)" transform="translate(-0.5 0.001)">
    <path id="Path_108" data-name="Path 108" d="M290.68,287.9a1.78,1.78,0,0,1-2.517,2.517l-4.76-5.171,2.1-2.1Zm0,0" transform="translate(-272.832 -273.073)" fill="#2bbdc4"/>
    <path id="Path_109" data-name="Path 109" d="M258.357,256.133l1.048.962-2.1,2.1-.963-1.046Zm0,0" transform="translate(-246.736 -247.016)" fill="#495d85"/>
    <path id="Path_110" data-name="Path 110" d="M27.847,12.181l-1.58,1.593H25.26l-.984-1.019V11.747l1.557-1.58a3.206,3.206,0,0,0-4.06,4.06l-3.025,3.025,0,0-4.722-4.733V11.51L11.507,10,10.5,11.007l1.51,2.517h1.007l4.722,4.733,0,0-3.014,3.014a3.206,3.206,0,0,0-4.06,4.06l1.58-1.593h1.007l1.019,1.019v1.007l-1.593,1.58a3.206,3.206,0,0,0,4.06-4.06l7.046-7.046a3.206,3.206,0,0,0,4.06-4.06Zm0,0" transform="translate(-9.645 -9.645)" fill="#e9eef0"/>
    <path id="Path_111" data-name="Path 111" d="M337.7,155.148a.356.356,0,1,0,.356.356A.356.356,0,0,0,337.7,155.148Zm0,0" transform="translate(-324.849 -149.626)"/>
    <path id="Path_112" data-name="Path 112" d="M156,336.84a.356.356,0,1,0,.356.356A.356.356,0,0,0,156,336.84Zm0,0" transform="translate(-149.622 -324.85)"/>
    <path id="Path_113" data-name="Path 113" d="M18.283,2.189a.356.356,0,0,0-.333.1L16.474,3.773h-.708l-.779-.807V2.248L16.442.772A.356.356,0,0,0,16.3.185a3.563,3.563,0,0,0-4.576,4.3L9.1,7.1,4.736,2.725V1.866a.356.356,0,0,0-.173-.305L2.046.05A.356.356,0,0,0,1.611.1L.6,1.11a.356.356,0,0,0-.054.435l1.51,2.517a.356.356,0,0,0,.305.173h.859L7.594,8.614,4.982,11.226A3.562,3.562,0,0,0,.685,15.8a.356.356,0,0,0,.59.137l1.476-1.487h.711l.811.811v.711L2.786,17.449a.356.356,0,0,0,.137.59,3.561,3.561,0,0,0,4.026-1.3,3.52,3.52,0,0,0,.55-3l2.1-2.1.481.522-.221.22a.356.356,0,0,0,.5.5l.2-.2,4.509,4.9.01.011A2.136,2.136,0,0,0,18.1,14.579l-.011-.011-4.905-4.5.2-.2a.356.356,0,0,0-.5-.5l-.219.219-.523-.48L14.244,7a3.562,3.562,0,0,0,4.3-4.576.356.356,0,0,0-.257-.233ZM3.625,3.628a.352.352,0,0,0-.252-.1H2.568L1.3,1.417,1.918.8,4.024,2.067v.805a.356.356,0,0,0,.1.251L8.6,7.607l-.5.5Zm9.055,6.944L17.6,15.087A1.424,1.424,0,0,1,15.588,17.1l-4.524-4.914Zm-.525-.482-1.573,1.573-.481-.522L11.632,9.61Zm3.011-3.683a2.845,2.845,0,0,1-.91-.148.357.357,0,0,0-.365.086L6.845,13.39a.356.356,0,0,0-.086.365,2.851,2.851,0,0,1-2.7,3.758,2.916,2.916,0,0,1-.31-.017L4.88,16.374a.356.356,0,0,0,.105-.253V15.115a.356.356,0,0,0-.1-.252L3.862,13.844a.356.356,0,0,0-.252-.1H2.6a.356.356,0,0,0-.253.105L1.228,14.976a2.88,2.88,0,0,1-.017-.31,2.851,2.851,0,0,1,3.758-2.7.356.356,0,0,0,.365-.086l7.046-7.046a.356.356,0,0,0,.086-.365,2.85,2.85,0,0,1,2.7-3.758,2.909,2.909,0,0,1,.32.018L14.378,1.852a.356.356,0,0,0-.1.25V3.109a.356.356,0,0,0,.1.247l.984,1.019a.356.356,0,0,0,.256.109h1.007a.356.356,0,0,0,.253-.105L18,3.249a2.85,2.85,0,0,1-2.831,3.158Zm0,0" transform="translate(0 0)"/>
    <path id="Path_114" data-name="Path 114" d="M188.483,183.53l-4.455,4.455a.356.356,0,0,0,.5.5l4.455-4.455a.356.356,0,0,0-.5-.5Zm0,0" transform="translate(-176.895 -176.897)"/>
    <path id="Path_115" data-name="Path 115" d="M348.592,348.878a.356.356,0,1,0,.5-.5l-3.209-3.2a.356.356,0,0,0-.5.5Zm0,0" transform="translate(-332.506 -332.789)"/>
  </g>
</svg>
