<svg xmlns="http://www.w3.org/2000/svg" width="20.518" height="21.984" viewBox="0 0 20.518 21.984">
  <g id="cleaning_3_" data-name="cleaning (3)" transform="translate(-17.067)">
    <g id="Group_39" data-name="Group 39" transform="translate(17.433 8.061)">
      <path id="Path_79" data-name="Path 79" d="M62.925,233.225H52.666L51.2,221.867H64.39Z" transform="translate(-50.101 -220.401)" fill="#4398d1"/>
      <rect id="Rectangle_19" data-name="Rectangle 19" width="15.389" height="1.466" transform="translate(0)" fill="#4398d1"/>
    </g>
    <path id="Path_80" data-name="Path 80" d="M51.2,221.867l.189,1.466H64.2l.189-1.466Z" transform="translate(-32.667 -212.341)" fill="#398cc4"/>
    <path id="Path_81" data-name="Path 81" d="M73.4,73.4h-5.13V70.1l1.466-1.832h2.2L73.4,70.1Z" transform="translate(-49.002 -65.336)" fill="#726891"/>
    <rect id="Rectangle_20" data-name="Rectangle 20" width="2.198" height="2.565" transform="translate(20.731 0.366)" fill="#e8594a"/>
    <rect id="Rectangle_21" data-name="Rectangle 21" width="5.13" height="3.298" transform="translate(19.265 4.763)" fill="#7a709c"/>
    <rect id="Rectangle_22" data-name="Rectangle 22" width="0.733" height="3.349" transform="matrix(-0.895, 0.447, -0.447, -0.895, 31.684, 4.6)" fill="#e66712"/>
    <g id="Group_40" data-name="Group 40" transform="translate(25.861 0.366)">
      <rect id="Rectangle_23" data-name="Rectangle 23" width="1.466" height="1.466" transform="translate(5.13)" fill="#f77219"/>
      <path id="Path_82" data-name="Path 82" d="M225.165,11.464h-3.3A2.931,2.931,0,0,1,224.8,8.533H227V10Z" transform="translate(-221.867 -8.533)" fill="#f77219"/>
    </g>
    <rect id="Rectangle_24" data-name="Rectangle 24" width="2.198" height="1.466" transform="translate(26.96 3.298)" fill="#d4d4d4"/>
    <path id="Path_83" data-name="Path 83" d="M222.966,110.933h2.2L227,112.765v1.466h-5.13v-2.2Z" transform="translate(-196.006 -106.17)" fill="#ebebeb"/>
    <path id="Path_84" data-name="Path 84" d="M288.562,366.933h-.574a2.23,2.23,0,0,0-1,.235,2.224,2.224,0,0,1-1.991,0,2.23,2.23,0,0,0-1-.235h-.574a1.832,1.832,0,0,0-1.832,1.832v2.2a1.832,1.832,0,0,0,1.832,1.832h.574a2.229,2.229,0,0,0,1-.235,2.224,2.224,0,0,1,1.991,0,2.229,2.229,0,0,0,1,.235h.574a1.832,1.832,0,0,0,1.832-1.832v-2.2A1.832,1.832,0,0,0,288.562,366.933Z" transform="translate(-253.174 -351.178)" fill="#f5a338"/>
    <path id="Path_85" data-name="Path 85" d="M288.562,370.6h-.574a2.23,2.23,0,0,1-1-.235h0a2.224,2.224,0,0,0-1.991,0h0a2.231,2.231,0,0,1-1,.235h-.574a1.832,1.832,0,0,1-1.832-1.832h0a1.832,1.832,0,0,1,1.832-1.832h.574a2.23,2.23,0,0,1,1,.235h0a2.224,2.224,0,0,0,1.991,0h0a2.23,2.23,0,0,1,1-.235h.574a1.832,1.832,0,0,1,1.832,1.832h0A1.832,1.832,0,0,1,288.562,370.6Z" transform="translate(-253.174 -351.178)" fill="#f9b44d"/>
    <g id="Group_41" data-name="Group 41" transform="translate(29.891 16.854)">
      <rect id="Rectangle_25" data-name="Rectangle 25" width="0.733" height="0.733" transform="translate(5.13)" fill="#f5a338"/>
      <rect id="Rectangle_26" data-name="Rectangle 26" width="0.733" height="0.733" transform="translate(1.466)" fill="#f5a338"/>
      <rect id="Rectangle_27" data-name="Rectangle 27" width="0.733" height="0.733" transform="translate(0 0.366)" fill="#f5a338"/>
      <rect id="Rectangle_28" data-name="Rectangle 28" width="0.733" height="0.733" transform="translate(3.664 0.366)" fill="#f5a338"/>
    </g>
    <path id="Path_86" data-name="Path 86" d="M116.8,190.664v-2.931h-5.862v8.427a1.1,1.1,0,0,0,1.1,1.1H115.7a1.1,1.1,0,0,0,1.1-1.1V192.5l1.488.744a.794.794,0,0,0,1.066-.355h0l.009-.018a.818.818,0,0,0-.358-1.1l-.005,0Z" transform="translate(-89.836 -179.672)" fill="#97d3e6"/>
    <path id="Path_87" data-name="Path 87" d="M119.339,191.763l-2.2-1.1v-2.931h-.278a17.275,17.275,0,0,1-5.569,8.589,1.1,1.1,0,0,0,1.084.938h3.664a1.1,1.1,0,0,0,1.1-1.1V192.5l1.488.744a.794.794,0,0,0,1.066-.355h0l.009-.018a.818.818,0,0,0-.358-1.1Z" transform="translate(-90.179 -179.672)" fill="#8ac9de"/>
    <g id="Group_42" data-name="Group 42" transform="translate(22.197 13.923)">
      <rect id="Rectangle_29" data-name="Rectangle 29" width="0.733" height="3.664" fill="#7dbdd1"/>
      <rect id="Rectangle_30" data-name="Rectangle 30" width="0.733" height="3.664" transform="translate(1.466)" fill="#7dbdd1"/>
      <rect id="Rectangle_31" data-name="Rectangle 31" width="0.733" height="3.664" transform="translate(2.931)" fill="#7dbdd1"/>
    </g>
    <path id="Path_88" data-name="Path 88" d="M17.433,9.893h.777l1.424,11.039a.366.366,0,0,0,.363.319h8.625a2.192,2.192,0,0,0,1.634.733h.574a2.6,2.6,0,0,0,1.159-.274,1.868,1.868,0,0,1,1.663,0,2.6,2.6,0,0,0,1.159.274h.574a2.2,2.2,0,0,0,2.2-2.2v-2.2a2.2,2.2,0,0,0-2.2-2.2h-.574a2.6,2.6,0,0,0-1.159.274,1.868,1.868,0,0,1-1.663,0,2.587,2.587,0,0,0-.66-.22l.714-5.55h.777a.367.367,0,0,0,.366-.366V8.061a.367.367,0,0,0-.366-.366H31.357V6.6a.366.366,0,0,0-.107-.259L29.525,4.612V3.473l.555-.444.949,1.9.656-.328L30.665,2.561l.453-.363h1.337a.367.367,0,0,0,.366-.366V.366A.367.367,0,0,0,32.456,0H28.792a3.3,3.3,0,0,0-3.3,3.3.367.367,0,0,0,.366.366h.733v.948L25.6,5.6a.365.365,0,0,0-.107.259V7.694h-.733V4.763a.364.364,0,0,0-.027-.132.35.35,0,0,0-.023-.041.41.41,0,0,0-.031-.055L23.3,2.8V.366A.367.367,0,0,0,22.929,0h-2.2a.367.367,0,0,0-.366.366V2.8L18.979,4.534a.41.41,0,0,0-.031.055.351.351,0,0,0-.023.041.364.364,0,0,0-.027.132V7.694H17.433a.367.367,0,0,0-.366.366V9.526A.367.367,0,0,0,17.433,9.893ZM35.387,21.251h-.574a1.871,1.871,0,0,1-.831-.2,2.605,2.605,0,0,0-2.319,0,1.871,1.871,0,0,1-.831.2h-.574a1.466,1.466,0,0,1-1.466-1.466v-.564a2.186,2.186,0,0,0,1.466.564h.574a2.6,2.6,0,0,0,1.159-.274,1.868,1.868,0,0,1,1.663,0,2.6,2.6,0,0,0,1.159.274h.574a2.186,2.186,0,0,0,1.466-.564v.564A1.466,1.466,0,0,1,35.387,21.251Zm-1.405-4.933a1.871,1.871,0,0,1,.831-.2h.574a1.466,1.466,0,1,1,0,2.931h-.574a1.871,1.871,0,0,1-.831-.2,2.605,2.605,0,0,0-2.319,0,1.871,1.871,0,0,1-.831.2h-.574a1.466,1.466,0,1,1,0-2.931h.574a1.871,1.871,0,0,1,.831.2A2.608,2.608,0,0,0,33.982,16.318ZM30.6,15.389h-.34a2.2,2.2,0,0,0-2.2,2.2v2.2a2.191,2.191,0,0,0,.128.733H20.32L18.949,9.893h1.782v6.6A1.466,1.466,0,0,0,22.2,17.954h3.664a1.466,1.466,0,0,0,1.466-1.466V13.417l.957.479a1.168,1.168,0,0,0,1.564-.53l0-.007a1.187,1.187,0,0,0,.067-.907,1.172,1.172,0,0,0-.594-.687l-2-1V9.893h3.98ZM25.861,8.427h.733v2.565a.366.366,0,0,0,.2.33l2.2,1.1a.443.443,0,0,1,.225.261.47.47,0,0,1-.037.366.428.428,0,0,1-.574.192h0L27.121,12.5a.367.367,0,0,0-.527.328v3.664a.733.733,0,0,1-.733.733v-3.3h-.733v3.3H24.4v-3.3h-.733v3.3h-.733v-3.3H22.2v3.3a.733.733,0,0,1-.733-.733V8.427Zm6.6.733h-5.13V8.427h5.13Zm-.366-7.694h-.733V.733h.733Zm-3.3-.733h1.832v.923L29.03,2.931H26.253A2.569,2.569,0,0,1,28.792.733Zm0,2.931V4.4H27.326V3.664Zm-2.565,2.35.884-.884h1.9l1.617,1.617v.948h-4.4ZM20.907,3.3h1.847l.879,1.1H20.028ZM21.1.733h1.466V2.565H21.1Zm-1.466,4.4h4.4V7.694h-4.4ZM17.8,8.427h2.931V9.16H17.8Z"/>
    <rect id="Rectangle_32" data-name="Rectangle 32" width="0.733" height="0.733" transform="translate(35.021 16.854)"/>
    <rect id="Rectangle_33" data-name="Rectangle 33" width="0.733" height="0.733" transform="translate(31.357 16.854)"/>
    <rect id="Rectangle_34" data-name="Rectangle 34" width="0.733" height="0.733" transform="translate(29.891 17.221)"/>
    <rect id="Rectangle_35" data-name="Rectangle 35" width="0.733" height="0.733" transform="translate(33.555 17.221)"/>
  </g>
</svg>
