<svg xmlns="http://www.w3.org/2000/svg" width="19.589" height="18.999" viewBox="0 0 19.589 18.999">
  <g id="glass-cleaning" transform="translate(0 -7.703)">
    <path id="Path_8" data-name="Path 8" d="M114.092,15.233H99.064a.246.246,0,0,0-.246.246V32.865a.246.246,0,0,0,.246.246h15.029a.246.246,0,0,0,.246-.246V15.479A.246.246,0,0,0,114.092,15.233Z" transform="translate(-95.037 -7.242)" fill="#e6e9ed"/>
    <g id="Group_11" data-name="Group 11" transform="translate(3.781 7.991)">
      <path id="Path_9" data-name="Path 9" d="M101.742,354.6l-.59.59a.193.193,0,0,1-.272,0l-.627-.626.3-.3a.193.193,0,0,0,0-.272l-.6-.6a.193.193,0,0,0-.272,0l-.3.3-.566-.566v4.7a.246.246,0,0,0,.246.246h3.968l1.094-1.094Z" transform="translate(-98.817 -340.198)" fill="#b1e8ff"/>
      <path id="Path_10" data-name="Path 10" d="M120.158,15.233h-5.639l-9.394,9.394,6.228,6.228L120.4,21.8V15.479A.246.246,0,0,0,120.158,15.233Z" transform="translate(-104.884 -15.233)" fill="#b1e8ff"/>
    </g>
    <g id="Group_12" data-name="Group 12" transform="translate(3.781 7.991)" opacity="0.1">
      <path id="Path_11" data-name="Path 11" d="M99.95,25.519V15.479a.246.246,0,0,1,.246-.246H99.063a.246.246,0,0,0-.246.246v8.907Z" transform="translate(-98.817 -15.233)"/>
      <path id="Path_12" data-name="Path 12" d="M99.95,401.6v-2.963l-1.133,1.133v1.83a.246.246,0,0,0,.246.246H100.2A.246.246,0,0,1,99.95,401.6Z" transform="translate(-98.817 -383.964)"/>
    </g>
    <path id="Path_13" data-name="Path 13" d="M49.744,234.578l-7.787-7.787a.193.193,0,0,0-.272,0l-.89.89a.193.193,0,0,0,0,.272l2.7,2.7.372-.372a.193.193,0,0,1,.272,0l2.124,2.124a.193.193,0,0,1,0,.272l-.372.372,2.7,2.7a.193.193,0,0,0,.272,0l.89-.89A.193.193,0,0,0,49.744,234.578Z" transform="translate(-39.181 -210.652)" fill="#08375e"/>
    <g id="Group_13" data-name="Group 13" transform="translate(1.559 16.083)" opacity="0.1">
      <path id="Path_14" data-name="Path 14" d="M41.423,228.574a.193.193,0,0,1,0-.272l.89-.89a.193.193,0,0,1,.24-.025l-.6-.6a.193.193,0,0,0-.272,0l-.89.89a.193.193,0,0,0,0,.272Z" transform="translate(-40.739 -226.734)"/>
    </g>
    <path id="Path_15" data-name="Path 15" d="M99.185,320l-2.124-2.124a.193.193,0,0,0-.272,0l-.963.963a.193.193,0,0,0,0,.272l.626.626.3-.3a.193.193,0,0,1,.272,0l.6.6a.193.193,0,0,1,0,.272l-.3.3.626.626a.193.193,0,0,0,.272,0l.963-.963A.193.193,0,0,0,99.185,320Z" transform="translate(-92.106 -298.252)" fill="#ffbb4a"/>
    <path id="Path_16" data-name="Path 16" d="M8.457,363.848a.193.193,0,0,1-.272,0l-.6-.6a.193.193,0,0,1,0-.272l4.3-4.3a.193.193,0,0,1,.272,0l.6.6a.193.193,0,0,1,0,.272Z" transform="translate(-7.241 -337.489)" fill="#fb8276"/>
    <g id="Group_14" data-name="Group 14" transform="translate(0.288 21.129)" opacity="0.1">
      <path id="Path_17" data-name="Path 17" d="M8,363.392l4.3-4.3a.193.193,0,0,1,.272,0l.184.184h0l-.6-.6a.193.193,0,0,0-.272,0l-4.3,4.3a.193.193,0,0,0,0,.272l.416.416A.193.193,0,0,1,8,363.392Z" transform="translate(-7.529 -358.617)"/>
    </g>
    <g id="Group_15" data-name="Group 15" transform="translate(0.343 9.699)">
      <path id="Path_18" data-name="Path 18" d="M302.611,62.8a.157.157,0,0,1-.15-.11,1.4,1.4,0,0,0-1.206-1.206.157.157,0,0,1,0-.3,1.4,1.4,0,0,0,1.206-1.206.157.157,0,0,1,.3,0,1.4,1.4,0,0,0,1.206,1.206.157.157,0,0,1,0,.3,1.4,1.4,0,0,0-1.206,1.206A.157.157,0,0,1,302.611,62.8Z" transform="translate(-289.965 -59.867)" fill="#fcc96c"/>
      <path id="Path_19" data-name="Path 19" d="M10.1,151.588a.122.122,0,0,1-.117-.086,1.094,1.094,0,0,0-.94-.94.122.122,0,0,1,0-.234,1.094,1.094,0,0,0,.94-.94.123.123,0,0,1,.234,0,1.1,1.1,0,0,0,.94.94.123.123,0,0,1,0,.234,1.094,1.094,0,0,0-.94.94A.123.123,0,0,1,10.1,151.588Z" transform="translate(-8.957 -145.879)" fill="#fcc96c"/>
      <path id="Path_20" data-name="Path 20" d="M326.155,235.242a.1.1,0,0,1-.093-.069.874.874,0,0,0-.751-.751.1.1,0,0,1,0-.187.874.874,0,0,0,.751-.751.1.1,0,0,1,.187,0,.874.874,0,0,0,.751.751.1.1,0,0,1,0,.187.874.874,0,0,0-.751.751A.1.1,0,0,1,326.155,235.242Z" transform="translate(-313.141 -226.776)" fill="#fcc96c"/>
    </g>
    <path id="Path_21" data-name="Path 21" d="M19.055,7.7H4.026a.534.534,0,0,0-.534.534v8.211l-.513-.513a.481.481,0,0,0-.679,0l-.89.89a.481.481,0,0,0,0,.679l2.082,2.082v.823a.479.479,0,0,0,0,.627v.9L.14,25.283a.481.481,0,0,0,0,.679l.6.6a.481.481,0,0,0,.679,0l.357-.357a.288.288,0,1,0-.407-.407l-.289.289-.464-.464,4.166-4.166.464.464L2.367,24.8a.288.288,0,0,0,.407.407l.718-.718v1.134a.534.534,0,0,0,.534.534H14.48a.288.288,0,1,0,0-.576H8.69l.4-.4.11.109a.481.481,0,0,0,.679,0l.89-.89a.481.481,0,0,0,0-.679l-.11-.11,8.355-8.355V25.581H16.285a.288.288,0,1,0,0,.576h2.77a.534.534,0,0,0,.534-.534V8.237A.534.534,0,0,0,19.055,7.7ZM5.122,20.981a.481.481,0,0,0-.679,0l-.1.1-.355-.355.827-.827,1.988,1.988-.827.827-.355-.355.1-.1a.481.481,0,0,0,0-.679Zm2.753,4.6H4.069V23.912l1.149-1.149.423.423a.481.481,0,0,0,.679,0l.386-.386,1.975,1.975Zm1.662-.764L7.114,22.392l.169-.169a.481.481,0,0,0,0-.679L5.158,19.42a.481.481,0,0,0-.679,0l-.169.169L1.886,17.165l.754-.754,7.651,7.651Zm9.475-10.373L10.25,23.205l-.84-.84,2.531-2.531a.288.288,0,0,0-.407-.407L9,21.958,5.25,18.206l1.374-1.374a.288.288,0,0,0-.407-.407L4.843,17.8l-.413-.413L9.055,12.76a.288.288,0,1,0-.407-.407L4.069,16.931V8.279H12.72l-2.93,2.93a.288.288,0,1,0,.407.407l3.337-3.337h5.477v6.164h0Z" transform="translate(0 0)"/>
    <path id="Path_22" data-name="Path 22" d="M1.715,143.594c.524.163.588.226.751.751a.411.411,0,0,0,.784,0c.163-.525.227-.588.751-.751a.411.411,0,0,0,0-.784c-.524-.163-.588-.227-.751-.751a.411.411,0,0,0-.784,0c-.163.524-.226.588-.751.751a.411.411,0,0,0,0,.784Zm1.143-.944a1.072,1.072,0,0,0,.552.552,1.072,1.072,0,0,0-.552.552,1.072,1.072,0,0,0-.552-.552A1.072,1.072,0,0,0,2.858,142.65Z" transform="translate(-1.371 -128.938)"/>
    <path id="Path_23" data-name="Path 23" d="M295.369,52.339a.443.443,0,0,0-.425.313c-.219.7-.314.8-1.017,1.017a.445.445,0,0,0,0,.85c.7.219.8.314,1.017,1.017a.445.445,0,0,0,.85,0c.219-.7.314-.8,1.017-1.017a.445.445,0,0,0,0-.85c-.7-.219-.8-.314-1.017-1.017A.443.443,0,0,0,295.369,52.339Zm.911,1.755a.911.911,0,0,1-1.821,0,.911.911,0,0,1,1.821,0Z" transform="translate(-282.38 -42.928)"/>
    <path id="Path_24" data-name="Path 24" d="M319.843,226.718c-.4-.125-.437-.161-.561-.561a.386.386,0,0,0-.737,0c-.125.4-.161.437-.561.561a.386.386,0,0,0,0,.737c.4.125.437.161.561.561a.386.386,0,0,0,.737,0c.125-.4.161-.437.561-.561a.386.386,0,0,0,0-.737Zm-.93.686a.318.318,0,1,1,0-.636.318.318,0,1,1,0,.636Z" transform="translate(-305.557 -209.834)"/>
    <path id="Path_25" data-name="Path 25" d="M238.444,160.548a.288.288,0,0,0-.407,0l-4.175,4.175a.288.288,0,1,0,.407.407l4.175-4.175A.288.288,0,0,0,238.444,160.548Z" transform="translate(-224.833 -146.916)"/>
  </g>
</svg>
