<svg xmlns="http://www.w3.org/2000/svg" width="20.698" height="20.698" viewBox="0 0 20.698 20.698">
  <g id="filled_outline" data-name="filled outline" transform="translate(0 0)">
    <path id="Path_26" data-name="Path 26" d="M271.589,150.21h-.69v-2.415a3.1,3.1,0,1,0-6.209,0v2.07H264v-2.07a3.795,3.795,0,1,1,7.589,0Z" transform="translate(-253.306 -138.48)" fill="#428dc5"/>
    <path id="Path_27" data-name="Path 27" d="M232,272h9.659v1.38H232Z" transform="translate(-222.686 -260.961)" fill="#6cbae5"/>
    <path id="Path_28" data-name="Path 28" d="M248.279,310.554H240.69L240,304h8.969Z" transform="translate(-230.341 -291.581)" fill="#4799cf"/>
    <path id="Path_29" data-name="Path 29" d="M333.52,248.949v2.482a.7.7,0,0,1-.657.708.707.707,0,0,0-1.413,0,.69.69,0,1,0-1.38,0,.494.494,0,1,0-.782-.345.7.7,0,0,1-.253.253.68.68,0,0,1-.334.092.706.706,0,0,1-.7-.709v-2.482a.949.949,0,0,1,.949-.949h3.622A.949.949,0,0,1,333.52,248.949Z" transform="translate(-314.546 -237.996)" fill="#fd9226"/>
    <g id="Group_20" data-name="Group 20" transform="translate(10.349 14.834)">
      <path id="Path_30" data-name="Path 30" d="M256,456h7.589v1.38H256Z" transform="translate(-256 -451.86)" fill="#6cbae5"/>
      <path id="Path_31" data-name="Path 31" d="M392,392h.69v1.725H392Z" transform="translate(-386.136 -390.62)" fill="#6cbae5"/>
      <path id="Path_32" data-name="Path 32" d="M392,360h.69v.69H392Z" transform="translate(-386.136 -360)" fill="#6cbae5"/>
    </g>
    <path id="Path_33" data-name="Path 33" d="M352.345,297.38a.688.688,0,0,1-.092.345.7.7,0,0,1-.253.253V296h.345Z" transform="translate(-337.511 -283.926)" fill="#e08122"/>
    <path id="Path_34" data-name="Path 34" d="M384.345,297.38a.689.689,0,0,1-.345.6V296h.345Z" transform="translate(-368.131 -283.926)" fill="#e08122"/>
    <path id="Path_35" data-name="Path 35" d="M416.345,297.38a.69.69,0,0,1-.345.6V296h.345Z" transform="translate(-398.751 -283.926)" fill="#e08122"/>
    <path id="Path_36" data-name="Path 36" d="M67.039,426.76H56l.69-2.76h9.659Z" transform="translate(-54.275 -406.406)" fill="#fbb540"/>
    <path id="Path_37" data-name="Path 37" d="M72.345,392h8.969a.345.345,0,0,1,.345.345v1.035H72v-1.035A.345.345,0,0,1,72.345,392Z" transform="translate(-69.585 -375.786)" fill="#c17450"/>
    <path id="Path_38" data-name="Path 38" d="M160.345,424h1.38l.345,2.76H160Z" transform="translate(-153.79 -406.406)" fill="#ea9d2d"/>
    <path id="Path_39" data-name="Path 39" d="M88,426.76l.69-2.76h1.38l-.69,2.76Z" transform="translate(-84.895 -406.406)" fill="#ea9d2d"/>
    <path id="Path_40" data-name="Path 40" d="M168.69,24a.69.69,0,0,1,.69.69V39.869H168V24.69A.69.69,0,0,1,168.69,24Z" transform="translate(-161.445 -23.655)" fill="#8f563b"/>
    <path id="Path_41" data-name="Path 41" d="M73.38,208A2.182,2.182,0,0,1,72,209.38a2.182,2.182,0,0,1,1.38,1.38,2.182,2.182,0,0,1,1.38-1.38A2.182,2.182,0,0,1,73.38,208Z" transform="translate(-69.585 -199.721)" fill="#fbb540"/>
    <path id="Path_42" data-name="Path 42" d="M425.38,112a2.182,2.182,0,0,1-1.38,1.38,1.38,1.38,0,0,0,2.76,0A2.182,2.182,0,0,1,425.38,112Z" transform="translate(-406.406 -107.86)" fill="#fbb540"/>
    <path id="Path_43" data-name="Path 43" d="M25.38,304A2.182,2.182,0,0,1,24,305.38a2.182,2.182,0,0,1,1.38,1.38,2.182,2.182,0,0,1,1.38-1.38A2.182,2.182,0,0,1,25.38,304Z" transform="translate(-23.655 -291.581)" fill="#fbb540"/>
    <path id="Path_44" data-name="Path 44" d="M232,424h1.38l.69,2.76h-1.38Z" transform="translate(-222.686 -406.406)" fill="#ea9d2d"/>
    <path id="Path_45" data-name="Path 45" d="M64.9,25.685v-.371a3.795,3.795,0,1,0-7.589,0v1.38h-1.38a.345.345,0,0,0-.345.345v1.38a.345.345,0,0,0,.345.345h.035l.327,3.1H54.9V17.035a1.035,1.035,0,0,0-2.07,0V31.869H49.38a.691.691,0,0,0-.69.69v.992l-.68,2.719a.345.345,0,0,0,.335.429H64.559a.345.345,0,0,0,.345-.345V34.992l.487-4.626a1.056,1.056,0,0,0,.548-.931V26.953A1.3,1.3,0,0,0,64.9,25.685ZM58,25.314a3.1,3.1,0,1,1,6.209,0v.345H61.023a1.3,1.3,0,0,0-1.268,1.035H58Zm-1.725,2.07h3.45v.69h-3.45Zm.383,1.38h3.067v.671a1.069,1.069,0,0,0,.318.756,1.018,1.018,0,0,0,.733.3,1.039,1.039,0,0,0,.674-.264,1.033,1.033,0,0,0,1.38,0,1.033,1.033,0,0,0,1.38,0,1.024,1.024,0,0,0,.473.24l-.438,4.163h-4.94l-.269-1.077v-.992a.691.691,0,0,0-.69-.69h-1.36ZM53.52,17.035a.345.345,0,0,1,.69,0V31.869h-.69ZM49.38,32.559h8.969v.69H49.38Zm.787,3.45.517-2.07h.669l-.517,2.07Zm-.862-2.07h.669l-.517,2.07h-.669Zm2.76,0h.72l-.259,2.07h-.979Zm1.156,2.07.259-2.07h.771l.259,2.07Zm1.984,0-.259-2.07h.72l.517,2.07Zm1.69,0-.517-2.07h.669l.517,2.07Zm1.38,0-.517-2.07h.669l.517,2.07Zm5.94,0h-4.56l-.172-.69h4.733Zm1.035-7.589v1.015a.359.359,0,0,1-.328.364.345.345,0,0,1-.362-.345v-1.38h-.69v1.38a.345.345,0,1,1-.69,0v-1.38h-.69v1.38a.345.345,0,1,1-.69,0v-1.38h-.69v1.38a.345.345,0,0,1-.34.345h0a.332.332,0,0,1-.233-.1.375.375,0,0,1-.112-.265V26.953a.6.6,0,0,1,.6-.6h3.622a.6.6,0,0,1,.6.6Z" transform="translate(-46.62 -16)"/>
    <path id="Path_46" data-name="Path 46" d="M392,392h.69v1.725H392Z" transform="translate(-375.786 -375.786)"/>
    <path id="Path_47" data-name="Path 47" d="M392,360h.69v.69H392Z" transform="translate(-375.786 -345.166)"/>
    <path id="Path_48" data-name="Path 48" d="M65.4,203.215a.345.345,0,0,0,.654,0,1.846,1.846,0,0,1,1.162-1.162.345.345,0,0,0,0-.655,1.846,1.846,0,0,1-1.162-1.162.345.345,0,0,0-.654,0,1.846,1.846,0,0,1-1.162,1.162.345.345,0,0,0,0,.655A1.846,1.846,0,0,1,65.4,203.215Zm.327-2.111a2.552,2.552,0,0,0,.622.622,2.553,2.553,0,0,0-.622.622,2.554,2.554,0,0,0-.622-.622A2.553,2.553,0,0,0,65.723,201.1Z" transform="translate(-61.928 -192.067)"/>
    <path id="Path_49" data-name="Path 49" d="M419.212,105.4a1.845,1.845,0,0,1-1.162-1.162.345.345,0,0,0-.654,0,1.846,1.846,0,0,1-1.162,1.162.345.345,0,0,0,0,.655,1.846,1.846,0,0,1,1.162,1.162.345.345,0,0,0,.654,0,1.845,1.845,0,0,1,1.162-1.162.345.345,0,0,0,0-.655Zm-1.489.95a2.553,2.553,0,0,0-.622-.622,2.554,2.554,0,0,0,.622-.622,2.554,2.554,0,0,0,.622.622A2.553,2.553,0,0,0,417.723,106.348Z" transform="translate(-398.75 -100.207)"/>
    <path id="Path_50" data-name="Path 50" d="M17.723,299.451a.345.345,0,0,0,.327-.236,1.846,1.846,0,0,1,1.162-1.162.345.345,0,0,0,0-.655,1.846,1.846,0,0,1-1.162-1.162.345.345,0,0,0-.654,0,1.846,1.846,0,0,1-1.162,1.162.345.345,0,0,0,0,.655,1.846,1.846,0,0,1,1.162,1.162A.345.345,0,0,0,17.723,299.451Zm0-2.347a2.553,2.553,0,0,0,.622.622,2.553,2.553,0,0,0-.622.622,2.553,2.553,0,0,0-.622-.622A2.553,2.553,0,0,0,17.723,297.1Z" transform="translate(-15.998 -283.927)"/>
  </g>
</svg>
