<svg xmlns="http://www.w3.org/2000/svg" width="17.284" height="21.967" viewBox="0 0 17.284 21.967">
  <g id="desinfectant" transform="translate(-54.57)">
    <g id="Group_84" data-name="Group 84" transform="translate(57.842 5.341)">
      <path id="Path_116" data-name="Path 116" d="M130.837,124.486h2.212v2.528h-2.212Z" transform="translate(-130.837 -124.486)" fill="#eff6ff" fill-rule="evenodd"/>
    </g>
    <g id="Group_85" data-name="Group 85" transform="translate(55.15 1.45)">
      <path id="Path_117" data-name="Path 117" d="M73.4,38.142a3.455,3.455,0,0,1,2.278-1.16,10.789,10.789,0,0,1,1.458-.1c.264-.077.607-.32.607-.608V33.805h-7.8L68.88,34.98c-.821.9-1.176,1.157-.242,1.458a1.928,1.928,0,0,1,1.385,1.7H73.4Z" transform="translate(-68.082 -33.805)" fill="#a1d4ff" fill-rule="evenodd"/>
    </g>
    <g id="Group_86" data-name="Group 86" transform="translate(62.746 4.351)">
      <path id="Path_118" data-name="Path 118" d="M247.665,105.166a5.582,5.582,0,0,1-1.063-3.577,1.3,1.3,0,0,0-1.458.1,5.155,5.155,0,0,0,.947,3.448C246.772,106.065,248,105.655,247.665,105.166Z" transform="translate(-245.141 -101.416)" fill="#eff6ff" fill-rule="evenodd"/>
    </g>
    <g id="Group_87" data-name="Group 87" transform="translate(64.391 1.899)">
      <path id="Path_119" data-name="Path 119" d="M284.566,46.05a.664.664,0,0,0,.663-.663v-.46a.664.664,0,0,0-.663-.663h-1.087V46.05Z" transform="translate(-283.479 -44.265)" fill="#eff6ff" fill-rule="evenodd"/>
    </g>
    <g id="Group_88" data-name="Group 88" transform="translate(59.157 5.787)">
      <path id="Path_120" data-name="Path 120" d="M161.479,134.889v1.636h.9v-1.636h-.9Z" transform="translate(-161.479 -134.889)" fill="#d9eeff" fill-rule="evenodd"/>
    </g>
    <g id="Group_89" data-name="Group 89" transform="translate(59.157 1.45)">
      <path id="Path_121" data-name="Path 121" d="M161.479,38.142h1.315a3.455,3.455,0,0,1,2.278-1.16,10.788,10.788,0,0,1,1.458-.1c.264-.077.607-.32.607-.608V33.805h-.906v1.639c0,.288-.343.531-.607.608a8.073,8.073,0,0,0-1.271.1C162.744,36.4,161.653,36.9,161.479,38.142Z" transform="translate(-161.479 -33.805)" fill="#86beec" fill-rule="evenodd"/>
    </g>
    <g id="Group_90" data-name="Group 90" transform="translate(63.533 4.525)">
      <path id="Path_122" data-name="Path 122" d="M263.509,105.488a5.576,5.576,0,0,0,1.064,3.577c.129.191.021.37-.2.462.566.157,1.085-.145.855-.484a5.582,5.582,0,0,1-1.063-3.577C263.937,105.468,263.718,105.476,263.509,105.488Z" transform="translate(-263.493 -105.466)" fill="#d9eeff" fill-rule="evenodd"/>
    </g>
    <g id="Group_91" data-name="Group 91" transform="translate(64.814 2.473)">
      <path id="Path_123" data-name="Path 123" d="M293.342,58.856h.664a.664.664,0,0,0,.663-.663v-.46a.706.706,0,0,0-.006-.089.666.666,0,0,1-.657.574h-.664v.637Z" transform="translate(-293.342 -57.645)" fill="#d9eeff" fill-rule="evenodd"/>
    </g>
    <g id="Group_92" data-name="Group 92" transform="translate(54.892 8.926)">
      <path id="Path_124" data-name="Path 124" d="M71.5,211.6c1.133.555,1.008,1.746,1.008,3.078v5.4a.694.694,0,0,1-.692.693H62.762a.694.694,0,0,1-.692-.693l.007-7.776a1.184,1.184,0,0,1,.26-.866l1.321-2.589,2.336-.794,2.823.794A5.2,5.2,0,0,0,71.5,211.6Z" transform="translate(-62.07 -208.052)" fill="#a1d4ff" fill-rule="evenodd"/>
    </g>
    <g id="Group_93" data-name="Group 93" transform="translate(56.212 7.423)">
      <path id="Path_125" data-name="Path 125" d="M98.642,175.046v-1.765a.268.268,0,0,0-.268-.266H93.122a.268.268,0,0,0-.268.266v1.765a.268.268,0,0,0,.268.266h5.253A.268.268,0,0,0,98.642,175.046Z" transform="translate(-92.854 -173.015)" fill="#fe8d94" fill-rule="evenodd"/>
    </g>
    <g id="Group_94" data-name="Group 94" transform="translate(60.513 7.423)">
      <path id="Path_126" data-name="Path 126" d="M193.352,173.281v1.765a.268.268,0,0,1-.268.266h1.22a.268.268,0,0,0,.268-.266v-1.765a.268.268,0,0,0-.268-.266h-1.22a.267.267,0,0,1,.268.266Z" transform="translate(-193.084 -173.015)" fill="#ff6d75" fill-rule="evenodd"/>
    </g>
    <g id="Group_95" data-name="Group 95" transform="translate(60.31 9.72)">
      <path id="Path_127" data-name="Path 127" d="M188.351,226.562a5.438,5.438,0,0,0,2.8,3.591c1.132.555,1.007,1.746,1.007,3.078v4.562a.694.694,0,0,1-.692.693h1.22a.694.694,0,0,0,.692-.693v-5.4c0-1.332.125-2.524-1.008-3.078a5.2,5.2,0,0,1-2.688-2.757h-1.329Z" transform="translate(-188.351 -226.562)" fill="#86beec" fill-rule="evenodd"/>
    </g>
    <g id="Group_96" data-name="Group 96" transform="translate(56.981 14.461)">
      <path id="Path_128" data-name="Path 128" d="M110.768,337.768v3.8a.714.714,0,0,0,.711.713h4.845a.715.715,0,0,0,.713-.713v-3.8a.714.714,0,0,0-.713-.711h-4.845A.713.713,0,0,0,110.768,337.768Zm1.778,2.275v-.911a.16.16,0,0,1,.161-.161h.522v-.522a.161.161,0,0,1,.159-.161h.912a.161.161,0,0,1,.161.161v.522h.522a.161.161,0,0,1,.161.161v.911a.161.161,0,0,1-.161.161h-.522v.522a.16.16,0,0,1-.161.161h-.912a.16.16,0,0,1-.159-.161V340.2h-.522A.16.16,0,0,1,112.546,340.044Z" transform="translate(-110.768 -337.057)" fill="#eff6ff" fill-rule="evenodd"/>
    </g>
    <g id="Group_97" data-name="Group 97" transform="translate(58.759 15.694)">
      <path id="Path_129" data-name="Path 129" d="M152.892,367.713v.522a.16.16,0,0,0,.159.161h.912a.16.16,0,0,0,.161-.161v-.522h.522a.161.161,0,0,0,.161-.161v-.911a.161.161,0,0,0-.161-.161h-.522v-.522a.161.161,0,0,0-.161-.161h-.912a.161.161,0,0,0-.159.161v.522h-.522a.16.16,0,0,0-.161.161v.911a.16.16,0,0,0,.161.161Z" transform="translate(-152.21 -365.799)" fill="#fe8d94" fill-rule="evenodd"/>
    </g>
    <g id="Group_98" data-name="Group 98" transform="translate(61.454 14.461)">
      <path id="Path_130" data-name="Path 130" d="M215.737,337.768v3.8a.714.714,0,0,1-.713.713h1.084a.715.715,0,0,0,.713-.713v-3.8a.714.714,0,0,0-.713-.711h-1.084A.713.713,0,0,1,215.737,337.768Z" transform="translate(-215.024 -337.057)" fill="#d9eeff" fill-rule="evenodd"/>
    </g>
    <g id="Group_99" data-name="Group 99" transform="translate(54.57)">
      <path id="Path_131" data-name="Path 131" d="M145.873,361.538h.912a.483.483,0,0,0,.482-.482v-.2h.2a.483.483,0,0,0,.482-.482v-.911a.483.483,0,0,0-.482-.482h-.2v-.2a.483.483,0,0,0-.482-.482h-.912a.482.482,0,0,0-.481.482v.2h-.2a.483.483,0,0,0-.482.482v.911a.483.483,0,0,0,.482.482h.2v.2A.482.482,0,0,0,145.873,361.538Zm-.52-1.326v-.588h.36a.322.322,0,0,0,.322-.322v-.361h.588v.36a.322.322,0,0,0,.322.322h.36v.588h-.36a.322.322,0,0,0-.322.322v.36h-.588v-.36a.322.322,0,0,0-.322-.322h-.36Z" transform="translate(-140.843 -342.926)"/>
      <path id="Path_132" data-name="Path 132" d="M107.506,335.423h1.641a1.036,1.036,0,0,0,1.034-1.034v-3.8a1.035,1.035,0,0,0-1.034-1.033H104.3a1.034,1.034,0,0,0-1.033,1.033v3.8a1.035,1.035,0,0,0,1.033,1.034h1.734a.322.322,0,1,0,0-.644H104.3a.391.391,0,0,1-.39-.391v-3.8a.39.39,0,0,1,.39-.39h4.845a.391.391,0,0,1,.391.39v3.8a.391.391,0,0,1-.391.391h-1.641a.322.322,0,1,0,0,.644Z" transform="translate(-101.179 -315.418)"/>
      <path id="Path_133" data-name="Path 133" d="M365.622,90.029h0a.322.322,0,0,0,0,.644h0a.322.322,0,0,0,0-.644Z" transform="translate(-351.965 -86.166)"/>
      <path id="Path_134" data-name="Path 134" d="M404.174,8.107h-.005a.322.322,0,1,0,0,.644h.005a.322.322,0,1,0,0-.644Z" transform="translate(-388.862 -7.759)"/>
      <path id="Path_135" data-name="Path 135" d="M442.72.644h0A.322.322,0,1,0,442.4.322.321.321,0,0,0,442.722.644Z" transform="translate(-425.759)"/>
      <path id="Path_136" data-name="Path 136" d="M365.647,16.83h0a.322.322,0,1,0-.325-.322A.32.32,0,0,0,365.65,16.83Z" transform="translate(-351.993 -15.492)"/>
      <path id="Path_137" data-name="Path 137" d="M345.919,53.051a.322.322,0,1,0,.322.322h0A.321.321,0,0,0,345.919,53.051Z" transform="translate(-333.111 -50.775)"/>
      <path id="Path_138" data-name="Path 138" d="M404.169,98.136a.322.322,0,1,0,0,.644h0a.322.322,0,0,0,0-.644Z" transform="translate(-388.862 -93.926)"/>
      <path id="Path_139" data-name="Path 139" d="M442.72,106.243a.322.322,0,1,0,0,.644h0a.322.322,0,1,0,0-.644Z" transform="translate(-425.759 -101.685)"/>
      <path id="Path_140" data-name="Path 140" d="M390.45,53.037a.322.322,0,0,0,0,.644h0a.32.32,0,0,0,.32-.322A.324.324,0,0,0,390.45,53.037Z" transform="translate(-375.731 -50.762)"/>
      <path id="Path_141" data-name="Path 141" d="M435.18,53.579a.322.322,0,1,0-.229.1.321.321,0,0,0,.229-.1Z" transform="translate(-418.323 -50.755)"/>
      <path id="Path_142" data-name="Path 142" d="M65.478,26.755h-.342v-.127a.322.322,0,0,0-.322-.322h-7.8a.322.322,0,0,0-.239.106l-1.063,1.175-.215.235c-.464.5-.744.809-.648,1.172.083.314.415.461.761.573a1.613,1.613,0,0,1,1.167,1.451.322.322,0,0,0,.317.268h.43v.992H56.479a.589.589,0,0,0-.588.588v1.765a.585.585,0,0,0,.159.4S54.8,37.469,54.77,37.52a1.271,1.271,0,0,0-.193.833l0,2.573a.322.322,0,0,0,.321.322h0a.322.322,0,0,0,.322-.321l0-2.574c0-.339.02-.372.1-.494.035-.056,1.36-2.639,1.36-2.639h4.751a5.584,5.584,0,0,0,2.757,2.724c.808.4.841,1.141.83,2.424,0,.12,0,.242,0,.365v5.4a.371.371,0,0,1-.37.371H55.584a.372.372,0,0,1-.37-.371l0-3.734a.322.322,0,0,0-.321-.322h0a.322.322,0,0,0-.322.321l0,3.733a1.016,1.016,0,0,0,1.014,1.016h9.059a1.016,1.016,0,0,0,1.014-1.015v-5.4c0-.121,0-.241,0-.359.01-1.187.021-2.415-1.19-3.008A4.924,4.924,0,0,1,62.085,35.1a.587.587,0,0,0,.237-.47V32.867a.589.589,0,0,0-.589-.588H60.376v-.992h.1a.322.322,0,0,0,.245-.113,2.9,2.9,0,0,1,1.709-.982,5.259,5.259,0,0,0,1.013,3.252,1.593,1.593,0,0,0,1.285.68,1.138,1.138,0,0,0,.646-.181.59.59,0,0,0,.168-.843,5.31,5.31,0,0,1-1.021-3.175,1.042,1.042,0,0,0,.614-.741h.348a.986.986,0,0,0,.985-.985v-.46a.986.986,0,0,0-.985-.985Zm-3.8,6.167v1.654H56.534V32.922h5.144Zm-3.514-.644v-.992h1.569v.992Zm2.163-1.636H57.353A2.177,2.177,0,0,0,55.8,28.955a1.511,1.511,0,0,1-.315-.13c.067-.12,1.663-1.875,1.663-1.875h7.339v2.145c0,.076-.162.223-.338.287C62.487,29.408,61.254,29.637,60.326,30.643Zm4.656,2.784a.538.538,0,0,1-.259.057h-.008a.957.957,0,0,1-.76-.422,4.643,4.643,0,0,1-.888-2.974c.245-.027.511-.045.8-.056A6.068,6.068,0,0,0,64.982,33.427Zm.837-5.228a.341.341,0,0,1-.341.341h-.342V27.4h.342a.341.341,0,0,1,.341.341Z" transform="translate(-54.57 -25.177)"/>
    </g>
  </g>
</svg>
