<svg id="Icon_ionic-ios-mail" data-name="Icon ionic-ios-mail" xmlns="http://www.w3.org/2000/svg" width="13.864" height="9.598" viewBox="0 0 13.864 9.598">
  <path id="Path_101" data-name="Path 101" d="M17.125,10.334,13.54,13.987a.064.064,0,0,0,0,.093l2.509,2.673a.432.432,0,0,1,0,.613.434.434,0,0,1-.613,0l-2.5-2.663a.068.068,0,0,0-.1,0l-.61.62a2.683,2.683,0,0,1-1.913.806,2.737,2.737,0,0,1-1.953-.83l-.587-.6a.068.068,0,0,0-.1,0l-2.5,2.663a.434.434,0,0,1-.613,0,.432.432,0,0,1,0-.613L7.078,14.08a.071.071,0,0,0,0-.093L3.488,10.334a.066.066,0,0,0-.113.047v7.308a1.07,1.07,0,0,0,1.066,1.066H16.172a1.07,1.07,0,0,0,1.066-1.066V10.381A.067.067,0,0,0,17.125,10.334Z" transform="translate(-3.375 -9.158)" fill="#1a1a1a"/>
  <path id="Path_102" data-name="Path 102" d="M10.754,13.977a1.812,1.812,0,0,0,1.3-.547l5.229-5.322a1.047,1.047,0,0,0-.66-.233H4.886a1.041,1.041,0,0,0-.66.233L9.455,13.43A1.812,1.812,0,0,0,10.754,13.977Z" transform="translate(-3.823 -7.875)" fill="#1a1a1a"/>
</svg>
