<svg xmlns="http://www.w3.org/2000/svg" width="9.08" height="9.078" viewBox="0 0 9.08 9.078">
  <path id="Icon_awesome-instagram" data-name="Icon awesome-instagram" d="M4.536,4.449A2.327,2.327,0,1,0,6.863,6.777,2.324,2.324,0,0,0,4.536,4.449Zm0,3.841A1.513,1.513,0,1,1,6.049,6.777,1.516,1.516,0,0,1,4.536,8.29ZM7.5,4.354a.543.543,0,1,1-.543-.543A.542.542,0,0,1,7.5,4.354ZM9.043,4.9A2.687,2.687,0,0,0,8.31,3a2.7,2.7,0,0,0-1.9-.733c-.749-.043-3-.043-3.745,0A2.7,2.7,0,0,0,.76,3,2.7,2.7,0,0,0,.027,4.9c-.043.749-.043,3,0,3.745a2.687,2.687,0,0,0,.733,1.9,2.708,2.708,0,0,0,1.9.733c.749.043,3,.043,3.745,0a2.687,2.687,0,0,0,1.9-.733,2.7,2.7,0,0,0,.733-1.9c.043-.749.043-2.994,0-3.743ZM8.075,9.453a1.532,1.532,0,0,1-.863.863,10,10,0,0,1-2.676.182,10.083,10.083,0,0,1-2.676-.182A1.532,1.532,0,0,1,1,9.453,10,10,0,0,1,.815,6.777,10.083,10.083,0,0,1,1,4.1a1.532,1.532,0,0,1,.863-.863,10,10,0,0,1,2.676-.182,10.083,10.083,0,0,1,2.676.182,1.532,1.532,0,0,1,.863.863,10,10,0,0,1,.182,2.676A10,10,0,0,1,8.075,9.453Z" transform="translate(0.005 -2.238)" fill="#193561"/>
</svg>
