<svg xmlns="http://www.w3.org/2000/svg" width="13.618" height="13.618" viewBox="0 0 13.618 13.618">
  <path id="Icon_awesome-phone-alt" data-name="Icon awesome-phone-alt" d="M13.229,9.623,10.251,8.347a.638.638,0,0,0-.745.184L8.187,10.142A9.859,9.859,0,0,1,3.474,5.429L5.086,4.11a.637.637,0,0,0,.184-.745L3.992.386a.643.643,0,0,0-.731-.37L.495.655A.638.638,0,0,0,0,1.277,12.34,12.34,0,0,0,12.341,13.618a.638.638,0,0,0,.622-.495l.638-2.766a.646.646,0,0,0-.373-.734Z" transform="translate(0 0)" fill="#1a1a1a"/>
</svg>
